<svg width="64" height="64" viewBox="0 0 64 64" xmlns="http://www.w3.org/2000/svg">
    <g fill="#000" fill-rule="nonzero">
        <path d="M26.06 15.03a5.947 5.947 0 0 1 5.939-5.94 5.947 5.947 0 0 1 5.94 5.94V34.76h5.09V15.03C43.03 8.948 38.083 4 32 4c-6.083 0-11.03 4.948-11.03 11.03v2.758h5.09v-2.757zM37.939 48.97a5.947 5.947 0 0 1-5.94 5.94 5.947 5.947 0 0 1-5.94-5.94V29.24h-5.09V48.97c0 6.083 4.947 11.031 11.03 11.031 6.083 0 11.03-4.948 11.03-11.03v-2.758h-5.09v2.757z"/>
        <path d="M48.97 20.968h-2.758v5.091h2.757A5.947 5.947 0 0 1 54.91 32a5.947 5.947 0 0 1-5.94 5.94H29.241v5.09H48.97C55.052 43.03 60 38.083 60 32c0-6.083-4.95-11.03-11.03-11.03zM9.09 31.999a5.947 5.947 0 0 1 5.94-5.94H34.76v-5.09H15.03C8.948 20.968 4 25.915 4 31.998c0 6.083 4.948 11.03 11.03 11.03h2.758v-5.09h-2.757a5.947 5.947 0 0 1-5.94-5.94z"/>
    </g>
</svg>
